<svg width="40" height="40" viewBox="0 0 40 40" fill="none" xmlns="http://www.w3.org/2000/svg">
<path d="M2.27999 21.472C6.08594 24.7437 9.50546 28.4397 12.472 32.488C12.764 32.888 13.436 33.128 13.816 32.664C19.4229 25.8029 25.5375 19.3728 32.108 13.428C33.956 11.756 35.8373 10.1253 37.752 8.53601C37.9074 8.37494 37.9943 8.15984 37.9943 7.93601C37.9943 7.71217 37.9074 7.49707 37.752 7.33601C37.5895 7.18329 37.375 7.09827 37.152 7.09827C36.929 7.09827 36.7144 7.18329 36.552 7.33601C29.7336 12.994 23.3491 19.1553 17.452 25.768C15.796 27.6347 14.18 29.5293 12.604 31.452L13.952 31.624C10.9109 27.4488 7.40136 23.6359 3.49199 20.26C2.65999 19.544 1.44399 20.752 2.29199 21.46L2.27999 21.472Z" fill="#1FBE1C"/>
</svg>
