<svg width="40" height="40" viewBox="0 0 40 40" fill="none" xmlns="http://www.w3.org/2000/svg">
<g id="question 2" clip-path="url(#clip0_196_17)">
<g id="Group">
<path id="Vector" d="M38.8282 21.2449H35.3162C34.623 21.2449 34.0647 21.8383 34.1348 22.528C34.1519 22.6966 34.1567 22.8689 34.148 23.0439C34.0627 24.7753 32.6454 26.1763 30.9132 26.2423C28.9908 26.3156 27.4103 24.779 27.4103 22.8731C27.4103 22.7552 27.4164 22.6387 27.4282 22.5239C27.4987 21.8379 26.9511 21.2449 26.2616 21.2449H21.2449V27.0482C21.2449 27.5756 20.911 28.056 20.3917 28.2301C20.0629 28.3403 19.6982 28.3037 19.3948 28.1359C19.0847 27.9644 18.731 27.8739 18.3718 27.8739C17.199 27.8739 16.2449 28.8276 16.2449 30C16.2449 31.1728 17.199 32.127 18.3718 32.127C18.731 32.127 19.0846 32.0364 19.3948 31.865C19.6982 31.6972 20.063 31.6606 20.3917 31.7707C20.911 31.9449 21.2449 32.4253 21.2449 32.9527V40H38.8282C39.4753 40 40 39.4753 40 38.8282V22.4167C40 21.7695 39.4753 21.2449 38.8282 21.2449Z" fill="url(#paint0_linear_196_17)"/>
<path id="Vector_2" d="M13.7552 30C13.7552 27.4549 15.8262 25.3842 18.3717 25.3842C18.4999 25.3842 18.6278 25.3896 18.7552 25.4002V21.2448H12.9759C12.6389 21.2448 12.3091 21.1203 12.0718 20.881C11.6704 20.4763 11.5995 19.8722 11.863 19.3965C11.994 19.1603 12.0766 18.9073 12.1096 18.6415C12.2591 17.4399 11.3539 16.3307 10.1457 16.2496C8.90773 16.1667 7.87391 17.1507 7.87391 18.3717C7.87391 18.7361 7.96211 19.0803 8.13602 19.3948C8.30406 19.6985 8.34039 20.0639 8.22969 20.393C8.05516 20.9116 7.57516 21.2448 7.0482 21.2448H0V38.8282C0 39.4753 0.524687 40 1.17188 40H18.7552V34.6007C18.6278 34.6113 18.4999 34.6166 18.3717 34.6166C15.8262 34.6166 13.7552 32.5457 13.7552 30Z" fill="url(#paint1_linear_196_17)"/>
<path id="Vector_3" d="M26.9529 6.7198C27.6001 6.7198 28.1248 6.19511 28.1248 5.54792V5.52746C28.1248 4.81652 28.7031 4.23816 29.4141 4.23816C30.125 4.23816 30.7033 4.81652 30.7033 5.52746C30.7033 6.10878 30.423 6.66066 29.9535 7.00363C28.8819 7.78628 28.2422 9.04558 28.2422 10.3725C28.2422 11.0196 28.7669 11.5443 29.4141 11.5443C30.0612 11.5443 30.5859 11.0196 30.5859 10.3725C30.5859 9.79113 30.8662 9.23925 31.3358 8.89628C32.4073 8.11363 33.0471 6.85425 33.0471 5.52746C33.0471 3.52417 31.4173 1.89441 29.4141 1.89441C27.4108 1.89441 25.781 3.52417 25.781 5.52746V5.54792C25.781 6.19511 26.3057 6.7198 26.9529 6.7198Z" fill="url(#paint2_linear_196_17)"/>
<path id="Vector_4" d="M29.4141 14.1211C28.8011 14.1211 28.2138 14.6601 28.2422 15.293C28.2706 15.9279 28.7571 16.4648 29.4141 16.4648C30.027 16.4648 30.6143 15.9259 30.5859 15.293C30.5575 14.658 30.071 14.1211 29.4141 14.1211Z" fill="url(#paint3_linear_196_17)"/>
<path id="Vector_5" d="M5.38422 18.3718C5.38422 15.8262 7.45484 13.7552 10 13.7552C12.5452 13.7552 14.6158 15.8262 14.6158 18.3718C14.6158 18.5 14.6105 18.6279 14.5998 18.7552H18.7552V13.7393C18.7552 13.0497 18.1621 12.5022 17.4762 12.5727C17.3614 12.5845 17.2449 12.5906 17.127 12.5906C15.2208 12.5906 13.6841 11.0089 13.7578 9.08633C13.8241 7.35422 15.2252 5.93727 16.9565 5.85211C17.1315 5.84352 17.3038 5.8482 17.4723 5.86531C18.1619 5.93547 18.7552 5.37727 18.7552 4.68414V1.17188C18.7552 0.524687 18.2305 0 17.5834 0H1.17188C0.524687 0 0 0.524687 0 1.17188V18.7552H5.40016C5.38961 18.6279 5.38422 18.5 5.38422 18.3718Z" fill="url(#paint4_linear_196_17)"/>
</g>
</g>
<defs>
<linearGradient id="paint0_linear_196_17" x1="28.1224" y1="21.2449" x2="28.1224" y2="40" gradientUnits="userSpaceOnUse">
<stop stop-color="#FF4880"/>
<stop offset="1" stop-color="#7F30FF"/>
</linearGradient>
<linearGradient id="paint1_linear_196_17" x1="9.37758" y1="16.2448" x2="9.37758" y2="40" gradientUnits="userSpaceOnUse">
<stop stop-color="#FF4880"/>
<stop offset="1" stop-color="#7F30FF"/>
</linearGradient>
<linearGradient id="paint2_linear_196_17" x1="29.4141" y1="1.89441" x2="29.4141" y2="11.5443" gradientUnits="userSpaceOnUse">
<stop stop-color="#FF4880"/>
<stop offset="1" stop-color="#7F30FF"/>
</linearGradient>
<linearGradient id="paint3_linear_196_17" x1="29.4141" y1="14.1211" x2="29.4141" y2="16.4648" gradientUnits="userSpaceOnUse">
<stop stop-color="#FF4880"/>
<stop offset="1" stop-color="#7F30FF"/>
</linearGradient>
<linearGradient id="paint4_linear_196_17" x1="9.37762" y1="0" x2="9.37762" y2="18.7552" gradientUnits="userSpaceOnUse">
<stop stop-color="#FF4880"/>
<stop offset="1" stop-color="#7F30FF"/>
</linearGradient>
<clipPath id="clip0_196_17">
<rect width="40" height="40" fill="white"/>
</clipPath>
</defs>
</svg>
