<svg width="40" height="40" viewBox="0 0 40 40" fill="none" xmlns="http://www.w3.org/2000/svg">
<path d="M34.752 32.656C30.1173 27.9867 25.3973 23.408 20.592 18.92C22.2693 16.0774 24.0027 13.2774 25.792 10.52C27.392 8.0827 29.0307 5.6827 30.708 3.32003C30.767 3.22146 30.8059 3.11216 30.8223 2.99847C30.8388 2.88477 30.8325 2.76894 30.8039 2.65769C30.7752 2.54644 30.7248 2.44198 30.6554 2.35037C30.5861 2.25877 30.4993 2.18183 30.4 2.12403C30.2026 2.01444 29.9705 1.9853 29.7522 2.04269C29.5338 2.10007 29.346 2.23955 29.228 2.43203C25.7133 7.38403 22.408 12.4787 19.312 17.716C17.1787 15.7294 15.0333 13.7587 12.876 11.804C10.7613 9.90003 8.62801 8.01203 6.47601 6.14003C5.65201 5.41603 4.43201 6.62403 5.27601 7.34003C9.72401 11.2254 14.1053 15.1854 18.42 19.22C16.5853 22.38 14.8293 25.58 13.152 28.82C11.8187 31.412 10.5373 34.0307 9.30801 36.676C9.18813 36.8747 9.15155 37.1126 9.20623 37.3381C9.26092 37.5636 9.40244 37.7584 9.60001 37.88C9.69843 37.9408 9.8081 37.981 9.92244 37.9984C10.0368 38.0158 10.1535 38.01 10.2655 37.9812C10.3775 37.9524 10.4826 37.9014 10.5744 37.8311C10.6663 37.7608 10.743 37.6727 10.8 37.572C13.5093 31.724 16.476 26.0107 19.7 20.432C22.3 22.88 24.8893 25.352 27.468 27.848C29.508 29.84 31.532 31.84 33.54 33.848C34.316 34.652 35.528 33.44 34.752 32.656Z" fill="#ED4545"/>
</svg>
